<?xml version="1.0" encoding="UTF-8" standalone="no" ?>
<!DOCTYPE svg PUBLIC "-//W3C//DTD SVG 1.1//EN" "http://www.w3.org/Graphics/SVG/1.1/DTD/svg11.dtd">
<svg xmlns="http://www.w3.org/2000/svg" xmlns:xlink="http://www.w3.org/1999/xlink" version="1.1" width="1080" height="1080" viewBox="0 0 1080 1080" xml:space="preserve">
<desc>Created with Fabric.js 5.2.4</desc>
<defs>
</defs>
<rect x="0" y="0" width="100%" height="100%" fill="transparent"></rect>
<g transform="matrix(1 0 0 1 540 540)" id="122c6ed4-558d-408d-b874-d6048306d56a"  >
</g>
<g transform="matrix(1 0 0 1 540 540)" id="c02903f7-6ea0-4d0f-9ce0-5e7ef87884e3"  >
<rect style="stroke: none; stroke-width: 1; stroke-dasharray: none; stroke-linecap: butt; stroke-dashoffset: 0; stroke-linejoin: miter; stroke-miterlimit: 4; fill: rgb(255,255,255); fill-rule: nonzero; opacity: 1; visibility: hidden;" vector-effect="non-scaling-stroke"  x="-540" y="-540" rx="0" ry="0" width="1080" height="1080" />
</g>
<g transform="matrix(7.21 0 0 7.21 151.69 528.13)"  >
<path style="stroke: none; stroke-width: 1; stroke-dasharray: none; stroke-linecap: butt; stroke-dashoffset: 0; stroke-linejoin: miter; stroke-miterlimit: 4; fill: rgb(103,210,97); fill-rule: nonzero; opacity: 1;" vector-effect="non-scaling-stroke"  transform=" translate(-17.5, -17.5)" d="M 4.63564 15.8644 L 6.94797 13.552 L 6.95038 13.5496 L 11.3006 13.5496 L 9.56969 15.2806 L 9.12278 15.7275 L 7.35024 17.5 L 7.56977 17.7201 L 17.5 27.6498 L 27.6498 17.5 L 25.8766 15.7275 L 25.7518 15.602 L 23.6994 13.5496 L 28.0496 13.5496 L 28.052 13.552 L 29.8644 15.3644 L 32 17.5 L 17.5 32 L 3 17.5 L 4.63564 15.8644 Z M 17.5 3 L 25.8784 11.3784 L 21.5282 11.3784 L 17.5 7.35024 L 13.4718 11.3784 L 9.12158 11.3784 L 17.5 3 Z" stroke-linecap="round" />
</g>
<g transform="matrix(7.21 0 0 7.21 76.74 516)"  >
<linearGradient id="SVGID_6" gradientUnits="userSpaceOnUse" gradientTransform="matrix(1 0 0 1 0 0)"  x1="8.62526" y1="14.0888" x2="5.56709" y2="17.1469">
<stop offset="0%" style="stop-color:rgb(0,58,140);stop-opacity: 1"/>
<stop offset="96.37%" style="stop-color:rgb(9,109,217);stop-opacity: 0"/>
</linearGradient>
<path style="stroke: none; stroke-width: 1; stroke-dasharray: none; stroke-linecap: butt; stroke-dashoffset: 0; stroke-linejoin: miter; stroke-miterlimit: 4; fill: url(#SVGID_6); fill-rule: nonzero; opacity: 1;" vector-effect="non-scaling-stroke"  transform=" translate(-7.1, -15.81)" d="M 7.35025 17.5 L 9.1228 15.7275 L 9.5697 15.2805 L 7.83937 13.5496 L 6.95039 13.5496 L 6.94798 13.552 L 4.63564 15.8644 L 6.8551 18.073 L 7.35025 17.5 Z" stroke-linecap="round" />
</g>
<g transform="matrix(7.21 0 0 7.21 226.13 514.57)"  >
<linearGradient id="SVGID_7" gradientUnits="userSpaceOnUse" gradientTransform="matrix(1 0 0 1 0 0)"  x1="26.2675" y1="14.1279" x2="28.7404" y2="16.938">
<stop offset="0%" style="stop-color:rgb(0,58,140);stop-opacity: 1"/>
<stop offset="100%" style="stop-color:rgb(9,109,217);stop-opacity: 0"/>
</linearGradient>
<path style="stroke: none; stroke-width: 1; stroke-dasharray: none; stroke-linecap: butt; stroke-dashoffset: 0; stroke-linejoin: miter; stroke-miterlimit: 4; fill: url(#SVGID_7); fill-rule: nonzero; opacity: 1;" vector-effect="non-scaling-stroke"  transform=" translate(-27.81, -15.61)" d="M 25.8767 15.7275 L 27.6498 17.5 L 27.4743 17.6755 L 27.4749 17.6761 L 29.8644 15.3644 L 28.0521 13.552 L 28.0497 13.5496 L 27.8736 13.5496 L 25.7518 15.602 L 25.8767 15.7275 Z" stroke-linecap="round" />
</g>
<g transform="matrix(7.21 0 0 7.21 151.72 537.74)"  >
<path style="stroke: none; stroke-width: 1; stroke-dasharray: none; stroke-linecap: butt; stroke-dashoffset: 0; stroke-linejoin: miter; stroke-miterlimit: 4; fill: rgb(103,210,97); fill-rule: nonzero; opacity: 1;" vector-effect="non-scaling-stroke"  transform=" translate(-17.5, -18.83)" d="M 6.94549 13.5496 L 6.9479 13.552 L 9.12272 15.7275 L 17.4999 24.1041 L 28.0544 13.5496 L 6.94549 13.5496 Z" stroke-linecap="round" />
</g>
<g transform="matrix(0 1.61 -1.52 0 764.89 518.92)"  >
<path style="stroke: rgb(0,0,0); stroke-width: 0; stroke-dasharray: none; stroke-linecap: butt; stroke-dashoffset: 0; stroke-linejoin: miter; stroke-miterlimit: 4; fill: rgb(103,210,97); fill-rule: nonzero; opacity: 1;" vector-effect="non-scaling-stroke"  transform=" translate(-50, -50)" d="M 94.75 50 C 94.75 56.213 89.514 61.25 83.054 61.25 L 16.946 61.25 C 10.486 61.25 5.25 56.213 5.25 50 L 5.25 50 C 5.25 43.787 10.486 38.75 16.945999999999998 38.75 L 83.053 38.75 C 89.514 38.75 94.75 43.787 94.75 50 L 94.75 50 z" stroke-linecap="round" />
</g>
<g transform="matrix(1.92 0 0 1.92 402.8 511.51)" id="b1db2ff1-be20-4b12-9b64-9ad258b485eb"  >
<polygon style="stroke: rgb(103,210,97); stroke-width: 0; stroke-dasharray: none; stroke-linecap: butt; stroke-dashoffset: 0; stroke-linejoin: miter; stroke-miterlimit: 4; fill: rgb(103,210,97); fill-rule: nonzero; opacity: 1;" vector-effect="non-scaling-stroke"  points="-37.43,32.41 0,-32.41 37.43,32.41 " />
</g>
<g transform="matrix(0.9 0.69 -0.92 1.21 812.58 549.6)" id="d6d62395-e696-4315-b274-08bf1d51b600"  >
<path style="stroke: rgb(0,0,0); stroke-width: 0; stroke-dasharray: none; stroke-linecap: butt; stroke-dashoffset: 0; stroke-linejoin: miter; stroke-miterlimit: 4; fill: rgb(103,210,97); fill-rule: nonzero; opacity: 1;" vector-effect="non-scaling-stroke"  transform=" translate(-50, -50)" d="M 94.75 50 C 94.75 56.213 89.514 61.25 83.054 61.25 L 16.946 61.25 C 10.486 61.25 5.25 56.213 5.25 50 L 5.25 50 C 5.25 43.787 10.486 38.75 16.945999999999998 38.75 L 83.053 38.75 C 89.514 38.75 94.75 43.787 94.75 50 L 94.75 50 z" stroke-linecap="round" />
</g>
<g transform="matrix(-0.93 0.62 -0.85 -1.26 813.86 491.69)"  >
<path style="stroke: rgb(0,0,0); stroke-width: 0; stroke-dasharray: none; stroke-linecap: butt; stroke-dashoffset: 0; stroke-linejoin: miter; stroke-miterlimit: 4; fill: rgb(103,210,97); fill-rule: nonzero; opacity: 1;" vector-effect="non-scaling-stroke"  transform=" translate(-50, -50)" d="M 94.75 50 C 94.75 56.213 89.514 61.25 83.054 61.25 L 16.946 61.25 C 10.486 61.25 5.25 56.213 5.25 50 L 5.25 50 C 5.25 43.787 10.486 38.75 16.945999999999998 38.75 L 83.053 38.75 C 89.514 38.75 94.75 43.787 94.75 50 L 94.75 50 z" stroke-linecap="round" />
</g>
<g transform="matrix(0 -1.59 1.52 0 667.22 518.07)" id="e02fe615-f9bb-4041-b18f-2ddbc4bcfcf7"  >
<path style="stroke: rgb(0,0,0); stroke-width: 0; stroke-dasharray: none; stroke-linecap: butt; stroke-dashoffset: 0; stroke-linejoin: miter; stroke-miterlimit: 4; fill: rgb(103,210,97); fill-rule: nonzero; opacity: 1;" vector-effect="non-scaling-stroke"  transform=" translate(-50, -50)" d="M 94.75 50 C 94.75 56.213 89.514 61.25 83.054 61.25 L 16.946 61.25 C 10.486 61.25 5.25 56.213 5.25 50 L 5.25 50 C 5.25 43.787 10.486 38.75 16.945999999999998 38.75 L 83.053 38.75 C 89.514 38.75 94.75 43.787 94.75 50 L 94.75 50 z" stroke-linecap="round" />
</g>
<g transform="matrix(0 1.52 -1.52 0 523.13 516.81)" id="0f3c86ac-11fd-4134-9985-24da5e2ad3a9"  >
<path style="stroke: rgb(0,0,0); stroke-width: 0; stroke-dasharray: none; stroke-linecap: butt; stroke-dashoffset: 0; stroke-linejoin: miter; stroke-miterlimit: 4; fill: rgb(103,210,97); fill-rule: nonzero; opacity: 1;" vector-effect="non-scaling-stroke"  transform=" translate(-50, -50)" d="M 94.75 50 C 94.75 56.213 89.514 61.25 83.054 61.25 L 16.946 61.25 C 10.486 61.25 5.25 56.213 5.25 50 L 5.25 50 C 5.25 43.787 10.486 38.75 16.945999999999998 38.75 L 83.053 38.75 C 89.514 38.75 94.75 43.787 94.75 50 L 94.75 50 z" stroke-linecap="round" />
</g>
<g transform="matrix(1.42 0 0 1.42 557.67 489.61)" id="f6fca9f3-1ddd-4ba1-b5f1-6912834675f9"  >
<circle style="stroke: rgb(0,0,0); stroke-width: 0; stroke-dasharray: none; stroke-linecap: butt; stroke-dashoffset: 0; stroke-linejoin: miter; stroke-miterlimit: 4; fill: rgb(103,210,97); fill-rule: nonzero; opacity: 1;" vector-effect="non-scaling-stroke"  cx="0" cy="0" r="35" />
</g>
</svg>