<?xml version="1.0" encoding="UTF-8" standalone="no" ?>
<!DOCTYPE svg PUBLIC "-//W3C//DTD SVG 1.1//EN" "http://www.w3.org/Graphics/SVG/1.1/DTD/svg11.dtd">
<svg xmlns="http://www.w3.org/2000/svg" xmlns:xlink="http://www.w3.org/1999/xlink" version="1.1" width="1080" height="1080" viewBox="0 0 1080 1080" xml:space="preserve">
<desc>Created with Fabric.js 5.2.4</desc>
<defs>
</defs>
<rect x="0" y="0" width="100%" height="100%" fill="transparent"></rect>
<g transform="matrix(1 0 0 1 540 540)" id="c02903f7-6ea0-4d0f-9ce0-5e7ef87884e3"  >
<rect style="stroke: none; stroke-width: 1; stroke-dasharray: none; stroke-linecap: butt; stroke-dashoffset: 0; stroke-linejoin: miter; stroke-miterlimit: 4; fill: rgb(255,255,255); fill-rule: nonzero; opacity: 1; visibility: hidden;" vector-effect="non-scaling-stroke"  x="-540" y="-540" rx="0" ry="0" width="1080" height="1080" />
</g>
<g transform="matrix(1 0 0 1 540 540)" id="122c6ed4-558d-408d-b874-d6048306d56a"  >
</g>
<g transform="matrix(7.21 0 0 7.21 455.76 528.19)"  >
<g style="" vector-effect="non-scaling-stroke"   >
		<g transform="matrix(1 0 0 1 -42.13 0)"  >
<path style="stroke: none; stroke-width: 1; stroke-dasharray: none; stroke-linecap: butt; stroke-dashoffset: 0; stroke-linejoin: miter; stroke-miterlimit: 4; fill: rgb(9,109,217); fill-rule: nonzero; opacity: 1;" vector-effect="non-scaling-stroke"  transform=" translate(-17.5, -17.5)" d="M 4.63564 15.8644 L 6.94797 13.552 L 6.95038 13.5496 L 11.3006 13.5496 L 9.56969 15.2806 L 9.12278 15.7275 L 7.35024 17.5 L 7.56977 17.7201 L 17.5 27.6498 L 27.6498 17.5 L 25.8766 15.7275 L 25.7518 15.602 L 23.6994 13.5496 L 28.0496 13.5496 L 28.052 13.552 L 29.8644 15.3644 L 32 17.5 L 17.5 32 L 3 17.5 L 4.63564 15.8644 Z M 17.5 3 L 25.8784 11.3784 L 21.5282 11.3784 L 17.5 7.35024 L 13.4718 11.3784 L 9.12158 11.3784 L 17.5 3 Z" stroke-linecap="round" />
</g>
		<g transform="matrix(1 0 0 1 -52.53 -1.69)"  >
<linearGradient id="SVGID_paint0_linear_3" gradientUnits="userSpaceOnUse" gradientTransform="matrix(1 0 0 1 0 0)"  x1="8.62526" y1="14.0888" x2="5.56709" y2="17.1469">
<stop offset="0%" style="stop-color:rgb(0,58,140);stop-opacity: 1"/>
<stop offset="96.37%" style="stop-color:rgb(9,109,217);stop-opacity: 0"/>
</linearGradient>
<path style="stroke: none; stroke-width: 1; stroke-dasharray: none; stroke-linecap: butt; stroke-dashoffset: 0; stroke-linejoin: miter; stroke-miterlimit: 4; fill: url(#SVGID_paint0_linear_3); fill-rule: nonzero; opacity: 1;" vector-effect="non-scaling-stroke"  transform=" translate(-7.1, -15.81)" d="M 7.35025 17.5 L 9.1228 15.7275 L 9.5697 15.2805 L 7.83937 13.5496 L 6.95039 13.5496 L 6.94798 13.552 L 4.63564 15.8644 L 6.8551 18.073 L 7.35025 17.5 Z" stroke-linecap="round" />
</g>
		<g transform="matrix(1 0 0 1 -31.82 -1.89)"  >
<linearGradient id="SVGID_paint1_linear_4" gradientUnits="userSpaceOnUse" gradientTransform="matrix(1 0 0 1 0 0)"  x1="26.2675" y1="14.1279" x2="28.7404" y2="16.938">
<stop offset="0%" style="stop-color:rgb(0,58,140);stop-opacity: 1"/>
<stop offset="100%" style="stop-color:rgb(9,109,217);stop-opacity: 0"/>
</linearGradient>
<path style="stroke: none; stroke-width: 1; stroke-dasharray: none; stroke-linecap: butt; stroke-dashoffset: 0; stroke-linejoin: miter; stroke-miterlimit: 4; fill: url(#SVGID_paint1_linear_4); fill-rule: nonzero; opacity: 1;" vector-effect="non-scaling-stroke"  transform=" translate(-27.81, -15.61)" d="M 25.8767 15.7275 L 27.6498 17.5 L 27.4743 17.6755 L 27.4749 17.6761 L 29.8644 15.3644 L 28.0521 13.552 L 28.0497 13.5496 L 27.8736 13.5496 L 25.7518 15.602 L 25.8767 15.7275 Z" stroke-linecap="round" />
</g>
		<g transform="matrix(1 0 0 1 -42.13 1.33)"  >
<path style="stroke: none; stroke-width: 1; stroke-dasharray: none; stroke-linecap: butt; stroke-dashoffset: 0; stroke-linejoin: miter; stroke-miterlimit: 4; fill: rgb(24,144,255); fill-rule: nonzero; opacity: 1;" vector-effect="non-scaling-stroke"  transform=" translate(-17.5, -18.83)" d="M 6.94549 13.5496 L 6.9479 13.552 L 9.12272 15.7275 L 17.4999 24.1041 L 28.0544 13.5496 L 6.94549 13.5496 Z" stroke-linecap="round" />
</g>
		<g transform="matrix(1 0 0 1 21.79 0.23)"  >
<path style="stroke: none; stroke-width: 1; stroke-dasharray: none; stroke-linecap: butt; stroke-dashoffset: 0; stroke-linejoin: miter; stroke-miterlimit: 4; fill: rgb(0,0,0); fill-opacity: 0.85; fill-rule: nonzero; opacity: 1;" vector-effect="non-scaling-stroke"  transform=" translate(-81.42, -17.73)" d="M 46.5781 10 L 46.5781 26 L 49.3594 26 L 49.3594 14.9844 L 49.5078 14.9844 L 53.9297 25.9531 L 56.0078 25.9531 L 60.4297 15.0078 L 60.5781 15.0078 L 60.5781 26 L 63.3594 26 L 63.3594 10 L 59.8125 10 L 55.0625 21.5937 L 54.875 21.5937 L 50.125 10 L 46.5781 10 Z M 69.8438 26.2422 C 71.7266 26.2422 72.8516 25.3594 73.3672 24.3516 L 73.4609 24.3516 L 73.4609 26 L 76.1797 26 L 76.1797 17.9687 C 76.1797 14.7969 73.5937 13.8438 71.3047 13.8438 C 68.7813 13.8438 66.8437 14.9687 66.2188 17.1562 L 68.8594 17.5312 C 69.1406 16.7109 69.9375 16.0078 71.3203 16.0078 C 72.6328 16.0078 73.3516 16.6797 73.3516 17.8594 L 73.3516 17.9062 C 73.3516 18.7188 72.5 18.7578 70.3828 18.9844 C 68.0547 19.2344 65.8281 19.9297 65.8281 22.6328 C 65.8281 24.9922 67.5547 26.2422 69.8438 26.2422 Z M 70.5781 24.1641 C 69.3984 24.1641 68.5547 23.625 68.5547 22.5859 C 68.5547 21.5 69.5 21.0469 70.7656 20.8672 C 71.5078 20.7656 72.9922 20.5781 73.3594 20.2812 L 73.3594 21.6953 C 73.3594 23.0312 72.2813 24.1641 70.5781 24.1641 Z M 81.8516 18.9687 C 81.8516 17.2344 82.8984 16.2344 84.3906 16.2344 C 85.8516 16.2344 86.7266 17.1953 86.7266 18.7969 L 86.7266 26 L 89.5547 26 L 89.5547 18.3594 C 89.5625 15.4844 87.9219 13.8438 85.4453 13.8438 C 83.6484 13.8438 82.4141 14.7031 81.8672 16.0391 L 81.7266 16.0391 L 81.7266 14 L 79.0234 14 L 79.0234 26 L 81.8516 26 L 81.8516 18.9687 Z M 98.4219 14 L 96.0547 14 L 96.0547 11.125 L 93.2266 11.125 L 93.2266 14 L 91.5234 14 L 91.5234 16.1875 L 93.2266 16.1875 L 93.2266 22.8594 C 93.2109 25.1172 94.8516 26.2266 96.9766 26.1641 C 97.7813 26.1406 98.3359 25.9844 98.6406 25.8828 L 98.1641 23.6719 C 98.0078 23.7109 97.6875 23.7812 97.3359 23.7812 C 96.625 23.7812 96.0547 23.5312 96.0547 22.3906 L 96.0547 16.1875 L 98.4219 16.1875 L 98.4219 14 Z M 100.787 26 L 103.615 26 L 103.615 14 L 100.787 14 L 100.787 26 Z M 102.209 12.2969 C 103.107 12.2969 103.842 11.6094 103.842 10.7656 C 103.842 9.91406 103.107 9.22656 102.209 9.22656 C 101.303 9.22656 100.568 9.91406 100.568 10.7656 C 100.568 11.6094 101.303 12.2969 102.209 12.2969 Z M 116.008 17.1719 C 115.617 15.1406 113.992 13.8438 111.18 13.8438 C 108.289 13.8438 106.32 15.2656 106.328 17.4844 C 106.32 19.2344 107.398 20.3906 109.703 20.8672 L 111.75 21.2969 C 112.852 21.5391 113.367 21.9844 113.367 22.6641 C 113.367 23.4844 112.477 24.1016 111.133 24.1016 C 109.836 24.1016 108.992 23.5391 108.75 22.4609 L 105.992 22.7266 C 106.344 24.9297 108.195 26.2344 111.141 26.2344 C 114.141 26.2344 116.258 24.6797 116.266 22.4062 C 116.258 20.6953 115.156 19.6484 112.891 19.1562 L 110.844 18.7188 C 109.625 18.4453 109.141 18.0234 109.148 17.3281 C 109.141 16.5156 110.039 15.9531 111.219 15.9531 C 112.523 15.9531 113.211 16.6641 113.43 17.4531 L 116.008 17.1719 Z" stroke-linecap="round" />
</g>
</g>
</g>
</svg>