<?xml version="1.0" encoding="UTF-8" standalone="no" ?>
<!DOCTYPE svg PUBLIC "-//W3C//DTD SVG 1.1//EN" "http://www.w3.org/Graphics/SVG/1.1/DTD/svg11.dtd">
<svg xmlns="http://www.w3.org/2000/svg" xmlns:xlink="http://www.w3.org/1999/xlink" version="1.1" width="1080" height="1080" viewBox="0 0 1080 1080" xml:space="preserve">
<desc>Created with Fabric.js 5.2.4</desc>
<defs>
</defs>
<rect x="0" y="0" width="100%" height="100%" fill="transparent"></rect>
<g transform="matrix(1 0 0 1 540 540)" id="122c6ed4-558d-408d-b874-d6048306d56a"  >
</g>
<g transform="matrix(1 0 0 1 540 540)" id="c02903f7-6ea0-4d0f-9ce0-5e7ef87884e3"  >
<rect style="stroke: none; stroke-width: 1; stroke-dasharray: none; stroke-linecap: butt; stroke-dashoffset: 0; stroke-linejoin: miter; stroke-miterlimit: 4; fill: rgb(255,255,255); fill-rule: nonzero; opacity: 1; visibility: hidden;" vector-effect="non-scaling-stroke"  x="-540" y="-540" rx="0" ry="0" width="1080" height="1080" />
</g>
<g transform="matrix(7.21 0 0 7.21 151.69 528.13)"  >
<path style="stroke: none; stroke-width: 1; stroke-dasharray: none; stroke-linecap: butt; stroke-dashoffset: 0; stroke-linejoin: miter; stroke-miterlimit: 4; fill: rgb(103,210,97); fill-rule: nonzero; opacity: 1;" vector-effect="non-scaling-stroke"  transform=" translate(-17.5, -17.5)" d="M 4.63564 15.8644 L 6.94797 13.552 L 6.95038 13.5496 L 11.3006 13.5496 L 9.56969 15.2806 L 9.12278 15.7275 L 7.35024 17.5 L 7.56977 17.7201 L 17.5 27.6498 L 27.6498 17.5 L 25.8766 15.7275 L 25.7518 15.602 L 23.6994 13.5496 L 28.0496 13.5496 L 28.052 13.552 L 29.8644 15.3644 L 32 17.5 L 17.5 32 L 3 17.5 L 4.63564 15.8644 Z M 17.5 3 L 25.8784 11.3784 L 21.5282 11.3784 L 17.5 7.35024 L 13.4718 11.3784 L 9.12158 11.3784 L 17.5 3 Z" stroke-linecap="round" />
</g>
<g transform="matrix(7.21 0 0 7.21 76.74 516)"  >
<linearGradient id="SVGID_6" gradientUnits="userSpaceOnUse" gradientTransform="matrix(1 0 0 1 0 0)"  x1="8.62526" y1="14.0888" x2="5.56709" y2="17.1469">
<stop offset="0%" style="stop-color:rgb(0,58,140);stop-opacity: 1"/>
<stop offset="96.37%" style="stop-color:rgb(9,109,217);stop-opacity: 0"/>
</linearGradient>
<path style="stroke: none; stroke-width: 1; stroke-dasharray: none; stroke-linecap: butt; stroke-dashoffset: 0; stroke-linejoin: miter; stroke-miterlimit: 4; fill: url(#SVGID_6); fill-rule: nonzero; opacity: 1;" vector-effect="non-scaling-stroke"  transform=" translate(-7.1, -15.81)" d="M 7.35025 17.5 L 9.1228 15.7275 L 9.5697 15.2805 L 7.83937 13.5496 L 6.95039 13.5496 L 6.94798 13.552 L 4.63564 15.8644 L 6.8551 18.073 L 7.35025 17.5 Z" stroke-linecap="round" />
</g>
<g transform="matrix(7.21 0 0 7.21 226.13 514.57)"  >
<linearGradient id="SVGID_7" gradientUnits="userSpaceOnUse" gradientTransform="matrix(1 0 0 1 0 0)"  x1="26.2675" y1="14.1279" x2="28.7404" y2="16.938">
<stop offset="0%" style="stop-color:rgb(0,58,140);stop-opacity: 1"/>
<stop offset="100%" style="stop-color:rgb(9,109,217);stop-opacity: 0"/>
</linearGradient>
<path style="stroke: none; stroke-width: 1; stroke-dasharray: none; stroke-linecap: butt; stroke-dashoffset: 0; stroke-linejoin: miter; stroke-miterlimit: 4; fill: url(#SVGID_7); fill-rule: nonzero; opacity: 1;" vector-effect="non-scaling-stroke"  transform=" translate(-27.81, -15.61)" d="M 25.8767 15.7275 L 27.6498 17.5 L 27.4743 17.6755 L 27.4749 17.6761 L 29.8644 15.3644 L 28.0521 13.552 L 28.0497 13.5496 L 27.8736 13.5496 L 25.7518 15.602 L 25.8767 15.7275 Z" stroke-linecap="round" />
</g>
<g transform="matrix(7.21 0 0 7.21 151.72 537.74)"  >
<path style="stroke: none; stroke-width: 1; stroke-dasharray: none; stroke-linecap: butt; stroke-dashoffset: 0; stroke-linejoin: miter; stroke-miterlimit: 4; fill: rgb(103,210,97); fill-rule: nonzero; opacity: 1;" vector-effect="non-scaling-stroke"  transform=" translate(-17.5, -18.83)" d="M 6.94549 13.5496 L 6.9479 13.552 L 9.12272 15.7275 L 17.4999 24.1041 L 28.0544 13.5496 L 6.94549 13.5496 Z" stroke-linecap="round" />
</g>
<g transform="matrix(1 0 0 1 643.3 518.08)" style="" id="11138ab2-cd8d-4e03-9a9f-27a397ba451e"  >
		<text xml:space="preserve" font-family="Lato" font-size="60" font-style="normal" font-weight="700" style="stroke: none; stroke-width: 1; stroke-dasharray: none; stroke-linecap: butt; stroke-dashoffset: 0; stroke-linejoin: miter; stroke-miterlimit: 4; fill: rgb(0,0,0); fill-rule: nonzero; opacity: 1; white-space: pre;" ><tspan x="-351.34" y="-18.44" >A</tspan><tspan x="-309.94" y="-18.44" >p</tspan><tspan x="-277.21" y="-18.44" >l</tspan><tspan x="-262.15" y="-18.44" >i</tspan><tspan x="-247.09" y="-18.44" >k</tspan><tspan x="-215.2" y="-18.44" >a</tspan><tspan x="-184.99" y="-18.44" >s</tspan><tspan x="-159.97" y="-18.44" >i</tspan><tspan x="-144.91" y="-18.44" style="white-space: pre; "> </tspan><tspan x="-134.53" y="-18.44" >P</tspan><tspan x="-99.13" y="-18.44" >e</tspan><tspan x="-68.26" y="-18.44" >n</tspan><tspan x="-35.35" y="-18.44" >a</tspan><tspan x="-5.14" y="-18.44" >t</tspan><tspan x="16.88" y="-18.44" >a</tspan><tspan x="47.09" y="-18.44" >u</tspan><tspan x="80" y="-18.44" >s</tspan><tspan x="105.02" y="-18.44" >a</tspan><tspan x="135.23" y="-18.44" >h</tspan><tspan x="168.14" y="-18.44" >a</tspan><tspan x="198.35" y="-18.44" >a</tspan><tspan x="228.56" y="-18.44" >n</tspan><tspan x="-351.34" y="56.14" >I</tspan><tspan x="-333.7" y="56.14" >n</tspan><tspan x="-300.79" y="56.14" >t</tspan><tspan x="-278.77" y="56.14" >e</tspan><tspan x="-247.9" y="56.14" >r</tspan><tspan x="-224.59" y="56.14" >n</tspan><tspan x="-191.68" y="56.14" >a</tspan><tspan x="-161.47" y="56.14" >l</tspan><tspan x="-146.41" y="56.14" style="white-space: pre; "> </tspan><tspan x="-136.03" y="56.14" >K</tspan><tspan x="-96.64" y="56.14" >e</tspan><tspan x="-65.77" y="56.14" >s</tspan><tspan x="-40.75" y="56.14" >e</tspan><tspan x="-9.88" y="56.14" >k</tspan><tspan x="22.01" y="56.14" >r</tspan><tspan x="45.32" y="56.14" >e</tspan><tspan x="76.19" y="56.14" >t</tspan><tspan x="98.21" y="56.14" >a</tspan><tspan x="128.42" y="56.14" >r</tspan><tspan x="151.73" y="56.14" >i</tspan><tspan x="166.79" y="56.14" >a</tspan><tspan x="197" y="56.14" >t</tspan><tspan x="219.02" y="56.14" >a</tspan><tspan x="249.23" y="56.14" >n</tspan></text>
</g>
</svg>